# xmcd
#
# Track frame offsets:
#	183
#	19543
#	56658
#	75918
#	88928
#	104113
#	126358
#	144563
#	165865
#	179273
#	204775
#	216768
#	233873
#	255285
#	270430
#	282875
#	299770
#	314328
#	336635
#
# Disc length: 4779 seconds
#
# Revision: 0
# Processed by: cddbd v1.5.1PL2 Copyright (c) Steve Scherf et al.
# Submitted via: SynApp - FreeCDDB Version: 2.0
#
DISCID=1512a913
DTITLE=Various Artist - Bedrock Blue Devil
DYEAR=1990
DGENRE=Blues
TTITLE0=Buddy Guy - Look On YOnders Wall
TTITLE1=Snooker Prior - How'd You Learn To Shake It Like That
TTITLE2=Kenny Neal - Bio On The Bayou
TTITLE3=Root-Boy Slim - When You Date Undead
TTITLE4=Major Handy - Come On Home
TTITLE5=Noble (Thin Man) Watts - Nobility
TTITLE6=Canned Heat - Let's Work Together
TTITLE7=Memphis Slim and Matt (Guitar) Murphy - Juggie Boogie
TTITLE8=Big Walter Horton and Carey Bell - Avenue Stomp
TTITLE9=Roosevelt "Booba" Barnes - Tin Pan Alley
TTITLE10=Eddie Shaw - Tears Are Falling
TTITLE11=Midnight Creapers - Jookin'
TTITLE12=Eddie Taylor - Clouds In My Heart
TTITLE13=Bootney - Evalina
TTITLE14=Mitch Leadry and The Cajon Ramblers - Two Stepp De Port Allen
TTITLE15=The Red Hot Pokers - She Ain't No Good
TTITLE16=Eddy Clearwater - I've CHanged My Style
TTITLE17=Jimmy Rogers - SloppyDrunk
TTITLE18=Jesse Taylor - Oh Mary Don't You Weep
EXTD=
EXTT0=
EXTT1=
EXTT2=
EXTT3=
EXTT4=
EXTT5=
EXTT6=
EXTT7=
EXTT8=
EXTT9=
EXTT10=
EXTT11=
EXTT12=
EXTT13=
EXTT14=
EXTT15=
EXTT16=
EXTT17=
EXTT18=
PLAYORDER=
